<?xml version="1.0" encoding="utf-8"?>
<!-- Generator: Adobe Illustrator 18.0.0, SVG Export Plug-In . SVG Version: 6.00 Build 0)  -->
<!DOCTYPE svg PUBLIC "-//W3C//DTD SVG 1.1//EN" "http://www.w3.org/Graphics/SVG/1.1/DTD/svg11.dtd">
<svg version="1.1" id="Layer_1" xmlns="http://www.w3.org/2000/svg" xmlns:xlink="http://www.w3.org/1999/xlink" x="0px" y="0px"
	 viewBox="0 210.9 1280 298.2" enable-background="new 0 210.9 1280 298.2" xml:space="preserve">
<g>
	<g>
		<rect x="0.5" y="210.9" fill="#000319" width="1279.6" height="298.2"/>
	</g>
	<g>
		<g>
			<g>
				<path fill="#FFFFFF" d="M187.3,347.3c-0.1,11.3-1.5,21-4.2,29c-2.7,8-6.6,14.5-11.7,19.6s-11.5,8.6-18.9,10.9
					c-7.5,2.3-16.1,3.4-25.9,3.4c-11.2,0-20.9-1.5-28.9-4.5c-8.1-3-14.8-7.8-20.1-14.3c-5.3-6.5-9.3-14.8-11.8-25
					c-2.6-10.2-3.8-22.5-3.8-36.7c0-14.3,1.3-26.6,3.8-36.9c2.6-10.3,6.5-18.7,11.8-25.2c5.3-6.5,12-11.3,20.1-14.4
					c8.1-3,17.7-4.5,28.9-4.5c9.7,0,18.4,1.2,25.9,3.5c7.5,2.4,13.8,5.9,19,10.9c5.2,5,9.1,11.3,11.8,19.2
					c2.7,7.9,4.1,17.4,4.2,28.5h-35.5c-0.3-5.9-1-10.9-2.2-14.9c-1.2-4-2.8-7.1-4.9-9.4c-2.2-2.4-4.8-4-7.9-5
					c-3.1-1-6.7-1.5-10.6-1.5c-5.1,0-9.4,0.8-13,2.4c-3.6,1.5-6.4,4.2-8.6,8.1c-2.2,3.8-3.8,9-4.9,15.3c-1.1,6.4-1.6,14.3-1.6,23.8
					c0,9.4,0.5,17.2,1.6,23.5c1.1,6.3,2.7,11.3,4.9,15.1c2.2,3.8,5.1,6.4,8.6,8c3.6,1.5,7.9,2.4,13,2.4c4,0,7.5-0.4,10.5-1.4
					c3-1,5.6-2.6,7.8-5c2.2-2.4,3.8-5.6,5-9.5c1.2-4,1.9-9.1,2.3-15.3H187.3z"/>
				<path fill="#FFFFFF" d="M201.8,405.9V244.4h34.8v161.5H201.8z"/>
				<path fill="#FFFFFF" d="M331.2,405.7L328,394c-3.4,4.5-7.9,8.1-13.6,10.7c-5.6,2.6-13,3.9-21.8,3.9c-13.7,0-24-2.4-30.6-7.2
					c-4.1-3-7-6.9-8.9-11.7c-1.7-4.9-2.7-10.7-2.7-17.6c0-11.3,3-19.7,9.2-25.1c3-2.7,6.6-4.8,10.9-6.3s9.2-2.6,14.6-3.4
					c5.4-0.8,11.3-1.2,17.8-1.4c6.5-0.1,13.4-0.2,20.6-0.2c0-4-0.1-7.3-0.4-10.3c-0.3-2.9-1-5.3-2.2-7.3c-1.2-2.3-2.9-3.9-5.2-5
					c-2.3-1.1-5.5-1.6-9.6-1.6c-3.7,0-6.8,0.5-9.3,1.5c-2.5,1-4.4,2.3-5.9,3.7c-1.5,1.4-2.6,3.1-3.1,4.9c-0.6,1.7-1,3.5-1,5.2h-31
					c0-3.4,0.4-7.3,1.4-11.9c1-4.5,3-8.9,6.3-13c3.2-4.1,8.1-7.6,14.7-10.4c6.5-2.8,15.3-4.2,26.6-4.2c11.8,0,21.1,1.2,28.1,3.4
					c6.9,2.3,12.2,5.4,15.9,9.5c2.4,2.7,4.2,5.7,5.5,9.2c1.3,3.5,2.3,7.1,2.9,11.1s1,8.4,1.2,13.1c0.1,4.6,0.2,9.6,0.2,14.9v25.7
					l1.7,31.5L331.2,405.7L331.2,405.7z M323.6,355.7c-6.4,0-12,0.2-16.9,0.5c-4.9,0.3-9,1.1-12.3,2.3c-3.4,1.2-5.8,2.8-7.7,5.1
					c-1.7,2.3-2.7,5.3-2.7,9.2c0,4,1.3,7.2,3.9,9.7c2.6,2.6,6.9,3.8,12.9,3.8c4.4,0,8.8-1,13-3c4.2-1.9,7.5-5.6,9.7-11v-16.5H323.6z
					"/>
				<path fill="#FFFFFF" d="M443.6,324.9c0-4.4-1.4-7.8-4.2-10.3c-2.8-2.5-7.7-3.7-14.5-3.7c-3.1,0-5.7,0.3-7.9,1
					c-2.2,0.6-3.8,1.4-5.1,2.4c-1.3,1-2.2,1.9-2.7,3.1c-0.5,1.2-0.8,2.4-0.8,3.5c0,3.8,1.7,6.7,5.1,8.5c3.4,1.8,7.7,3.4,12.9,4.4
					c5.2,1.2,10.7,2.3,16.6,3.4c5.9,1.2,11.5,3,16.6,5.5c5.2,2.6,9.4,6.2,12.9,10.7c3.4,4.6,5.1,10.9,5.1,19
					c0,12-4.3,21.2-12.9,27.5s-22.2,9.4-40.6,9.4c-17.6,0-30.6-3.4-39-10.1c-8.4-6.7-12.6-17.5-12.6-32.2h31
					c0,6.9,1.9,11.7,5.7,14.3c3.8,2.6,8.6,3.8,14.5,3.8c6.3,0,11-0.9,14.3-2.7c3.2-1.7,4.9-4.3,4.9-7.6c0-4-1.7-6.9-5.1-8.9
					c-3.4-1.9-7.7-3.5-12.8-4.5c-5.1-1.1-10.6-2.3-16.4-3.5c-5.8-1.2-11.3-3.1-16.4-5.7c-5.1-2.6-9.4-6.4-12.8-11.1
					c-3.4-4.9-5.1-11.5-5.1-20c0-10.6,4.1-19,12.3-25.2s20.6-9.3,37.4-9.3c17.7,0,30.6,3.2,38.6,9.6c8,6.5,12,16,12,28.5h-31V324.9z
					"/>
				<path fill="#FFFFFF" d="M554.3,324.9c0-4.4-1.4-7.8-4.2-10.3c-2.8-2.5-7.7-3.7-14.5-3.7c-3.1,0-5.7,0.3-7.9,1
					c-2.2,0.6-3.8,1.4-5.1,2.4s-2.2,1.9-2.7,3.1c-0.5,1.2-0.8,2.4-0.8,3.5c0,3.8,1.7,6.7,5.1,8.5s7.7,3.4,12.9,4.4
					c5.2,1.2,10.7,2.3,16.6,3.4c5.9,1.2,11.5,3,16.6,5.5c5.2,2.6,9.4,6.2,12.9,10.7c3.4,4.6,5.1,10.9,5.1,19
					c0,12-4.3,21.2-12.9,27.5s-22.2,9.4-40.6,9.4c-17.6,0-30.6-3.4-39-10.1c-8.4-6.7-12.6-17.5-12.6-32.2h31
					c0,6.9,1.9,11.7,5.7,14.3s8.6,3.8,14.5,3.8c6.3,0,11-0.9,14.3-2.7c3.2-1.7,4.9-4.3,4.9-7.6c0-4-1.7-6.9-5.1-8.9
					c-3.4-1.9-7.7-3.5-12.8-4.5c-5.1-1.1-10.6-2.3-16.4-3.5c-5.8-1.2-11.3-3.1-16.4-5.7c-5.1-2.6-9.4-6.4-12.8-11.1
					c-3.4-4.9-5.1-11.5-5.1-20c0-10.6,4.1-19,12.3-25.2s20.6-9.3,37.4-9.3c17.7,0,30.6,3.2,38.6,9.6c8,6.5,12,16,12,28.5h-31V324.9z
					"/>
				<path fill="#FFFFFF" d="M728.4,405.9l1.3-77.6l-26.2,78h-44.4l-22.9-73.7l1.1,73.3h-41.7V250.8h61l28.1,93.5l29.1-93.5h59.4
					l-0.3,155.1H728.4z"/>
				<path fill="#FFFFFF" d="M863,405.9l-3.8-10.6c-2.3,4.2-5.7,7.6-10.4,10.1c-4.6,2.5-11.2,3.7-19.8,3.7c-9.1,0-16.6-0.8-22.6-2.3
					c-6.1-1.5-10.9-3.8-14.6-6.9c-3.7-3.1-6.3-7.1-7.9-12.1c-1.5-5-2.4-10.9-2.4-17.8c0-10.9,2.8-18.8,8.3-23.8
					c5.2-4.6,13.1-7.5,23.3-8.5c10.4-1,23.6-1.5,39.8-1.5c0.3-6.8,0-11.7-0.8-14.8c-0.8-3-3.7-4.5-8.6-4.5c-2.8,0-5.3,0.9-7.3,2.5
					c-2.1,1.6-3.1,4.3-3.1,8h-45.3c0-2.3,0.1-4.9,0.3-7.9c0.2-3,0.9-5.9,1.8-9.1c1-3,2.6-6.1,4.6-9.2c2.2-3,5.2-5.7,9.2-8.1
					c4-2.4,9-4.2,15-5.6c6.1-1.4,13.4-2.2,22.2-2.2c13.5,0,24.2,1.1,32.2,3.1c8,2.2,14.3,5.3,18.8,9.4c3,2.7,5.2,5.7,6.8,9.3
					c1.5,3.5,2.7,7.3,3.5,11.5c0.8,4.2,1.2,8.6,1.4,13.5c0.1,4.9,0.2,9.9,0.2,15.6v24.4l1.1,34h-42V405.9z M853.1,357.9
					c-6.7,0.1-11.5,1-14.5,2.5c-3,1.5-4.4,4.8-4.4,9.6c0,3.8,0.9,6.7,2.7,8.5c1.7,1.8,3.8,2.8,6.1,2.8c1.5,0,3.2-0.1,5.2-0.3
					s3.6-1.3,5-3.2L853.1,357.9L853.1,357.9z"/>
				<path fill="#FFFFFF" d="M983.3,409.3c-13.8,0-24.9-1.3-32.9-4c-8-2.7-14.1-6.6-18-11.8c-4-5.2-6.6-11.5-7.8-19
					c-1.2-7.5-1.7-16.1-1.7-25.7v-27.2h-15.7v-33.4H923v-29.9l50.8-7.5v37.4h21.1v33.4h-21.1v25.1c0,4.4,0.3,8,0.9,10.7
					c0.5,2.8,1.4,5,2.7,6.5c1.2,1.5,2.7,2.6,4.3,3.1c1.7,0.5,3.7,0.9,5.9,0.9h7.9v41.4h-12.2V409.3z"/>
				<path fill="#FFFFFF" d="M1052.2,355.1c0.1,4.9,0.5,8.6,1.2,11.6c0.6,2.9,1.4,5.2,2.4,6.8c1,1.6,2.1,2.7,3.5,3.1
					c1.4,0.5,3.1,0.8,5.1,0.8c3.7,0,6.5-0.9,8.5-2.7c1.9-1.7,3.1-5,3.4-9.6h52.1c0,6.9-1.1,13.2-3.2,18.8
					c-2.2,5.6-5.8,10.4-10.8,14.3c-5.1,3.9-11.6,6.9-19.8,9c-8.1,2.1-18.2,3.1-30,3.1c-12.6,0-23-1.2-31.3-3.7
					c-8.3-2.5-14.9-6.3-19.8-11.5s-8.3-11.7-10.2-19.7c-1.9-7.9-2.9-17.4-2.9-28.2c0-10.9,1-20.3,2.9-28.2
					c1.9-7.9,5.3-14.5,10.2-19.7c4.9-5.2,11.5-9,19.8-11.5c8.3-2.5,18.7-3.7,31.3-3.7c11.9,0,21.9,1.2,30,3.5
					c8.1,2.4,14.7,6.3,19.8,11.8c5.1,5.5,8.6,12.9,10.8,21.8c2.2,9.1,3.2,20.4,3.2,34h-76.1V355.1z M1075.3,334.5
					c-0.4-4.5-1-8.1-1.6-10.8c-0.6-2.7-1.4-4.8-2.4-6.1s-1.9-2.2-3.1-2.6c-1.2-0.3-2.5-0.5-3.9-0.5c-1.8,0-3.5,0.2-4.9,0.8
					s-2.6,1.4-3.5,2.9c-1,1.4-1.6,3.5-2.3,6.1c-0.5,2.6-1,6.1-1.3,10.3C1052.4,334.5,1075.3,334.5,1075.3,334.5z"/>
			</g>
			<path fill="#FFFFFF" stroke="#FFFFFF" stroke-miterlimit="10" d="M1133.1,265.5c-1.7,1.9,3.1,8.4,11,17c1.2-4.3,4.3-7.9,8.3-9.5
				C1142.4,267,1134.8,263.6,1133.1,265.5z M1152.7,396.4c-6.8,9.5-10.8,16.6-8.9,18.4c1.9,1.6,8.8-2.5,17.6-9.5
				C1157.3,403.8,1154,400.6,1152.7,396.4z M1223.8,323.4c-0.1-0.1-0.3-0.3-0.4-0.4l0,0c-0.1-0.1-0.2-0.2-0.4-0.3
				c-4.5-4-41.4-31.9-66.6-47.3l0,0c-5.1,0.5-9,4.8-9.4,10.1c16.8,17.3,43.8,41,55.3,50.9c-10.4,11.8-33.1,37.6-47.1,56.5
				c0.4,5.2,4.4,9.4,9.5,9.8c22.9-18.6,56.5-51.8,60.6-56.4C1231.1,339.5,1230.5,329.3,1223.8,323.4z M1218.1,325.7
				c-1.1,1.3-2.9,1.5-4.3,0.4c-1.3-1.1-30.5-26-29.4-27.3s31.9,21.6,33.3,22.6C1218.8,322.4,1219,324.4,1218.1,325.7z"/>
			<polygon fill="none" stroke="#12B24B" stroke-width="0.3" stroke-miterlimit="10" points="589.7,321.5 589.7,321.5 589.7,321.5 
							"/>
		</g>
		<g>
			<path fill="#FFFFFF" d="M299.4,476v-46.5h6.2V476H299.4z"/>
			<path fill="#FFFFFF" d="M337.4,460.4l-17.4-0.1c0,1.8,0.1,3.6,0.4,5c0.3,1.5,0.8,2.7,1.4,3.7c0.6,1,1.5,1.7,2.6,2.3
				s2.5,0.8,4.1,0.8s3-0.2,4.1-0.6c1.1-0.4,1.9-1,2.6-1.6c0.6-0.6,1.1-1.3,1.4-2.1c0.2-0.8,0.4-1.4,0.4-1.9h6.2c0,1-0.2,2.2-0.6,3.5
				s-1.2,2.5-2.3,3.6c-1.1,1.1-2.6,2.1-4.4,2.8c-1.8,0.8-4.2,1.2-7.1,1.2c-2.8,0-5.1-0.3-7-1.1s-3.5-1.8-4.5-3.4
				c-1.2-1.5-1.9-3.2-2.5-5.4c-0.5-2.2-0.8-4.5-0.8-7.2c0-2.7,0.2-5.2,0.8-7.3c0.5-2.2,1.3-4,2.5-5.5c1.2-1.5,2.7-2.7,4.5-3.5
				c1.9-0.8,4.2-1.2,7-1.2c5.2,0,9,1.5,11.2,4.4c2.3,2.9,3.5,7.5,3.5,13.7h-6.1V460.4z M337.2,455.8c-0.3-3-1.2-5.3-2.6-6.8
				c-1.3-1.5-3.4-2.3-6.1-2.3c-2.8,0-4.9,0.8-6.1,2.4c-1.3,1.6-2.1,3.8-2.3,6.6h17V455.8z"/>
			<path fill="#FFFFFF" d="M373.6,475.9l-0.8-4.2c-1.1,1.5-2.5,2.7-4.3,3.6c-1.8,0.9-4.2,1.3-7,1.3c-4.1,0-7-0.9-8.8-2.5
				c-1.7-1.6-2.6-4.1-2.6-7.5c0-1.6,0.2-2.9,0.6-4.1c0.4-1.1,1-2.1,1.8-2.8c0.9-0.9,2.1-1.5,3.4-1.9c1.3-0.4,2.8-0.8,4.5-1
				c1.6-0.2,3.5-0.3,5.5-0.3c1.9,0,4,0,6.2,0c0-2.1-0.1-3.8-0.3-5.1s-0.6-2.4-1.4-3.1c-1-1-2.8-1.5-5.4-1.5c-1.6,0-2.9,0.2-4,0.6
				c-1,0.4-1.8,0.9-2.4,1.5c-0.5,0.6-1,1.3-1.2,1.9c-0.2,0.8-0.3,1.4-0.3,1.9h-5.5c0-1,0.1-2.1,0.4-3.2c0.2-1.2,0.9-2.4,1.7-3.5
				c0.9-1.1,2.2-2.1,4-2.8c1.7-0.8,4.1-1.1,7-1.1c2.6,0,4.6,0.2,6.3,0.8c1.6,0.4,2.9,1.1,4,1.9c1.5,1.3,2.5,3,2.8,5.1
				c0.3,2.1,0.5,4.5,0.5,7.2v2.3v7.8l0.5,8.5h-5.4V475.9z M372.1,460.7c-2.5,0-4.8,0-6.7,0.1c-1.9,0.1-3.7,0.3-5.1,0.6
				s-2.5,1-3.2,1.8s-1.1,2.1-1.1,3.7s0.5,2.9,1.5,4c1,1,2.8,1.5,5.3,1.5c2.2,0,4.1-0.5,5.8-1.5c1.7-1,2.9-2.5,3.6-4.4v-5.8H372.1z"
				/>
			<path fill="#FFFFFF" d="M388.7,476v-23.5l-0.5-9.5h5.2l1,6.5c0.2-0.6,0.5-1.3,1.1-2.2s1.2-1.6,2.2-2.4c0.9-0.8,2.1-1.4,3.5-1.9
				s3.1-0.8,5.2-0.8v5.7c-2.2,0-4,0.3-5.4,1.1s-2.5,1.6-3.4,2.6c-0.9,1-1.4,2.1-1.8,3c-0.4,1-0.6,1.8-0.8,2.4v19h-6.2V476z"/>
			<path fill="#FFFFFF" d="M435,476v-9.1c0-1.2,0-2.3,0-3.5c0-1.2,0-2.2,0-3.1c0-0.9,0-1.7,0-2.4c0-0.6,0-1.1,0-1.2
				c0-1.4-0.1-2.7-0.3-3.8c-0.2-1.2-0.5-2.2-1.1-2.9c-0.5-0.9-1.2-1.4-2.1-1.8c-0.9-0.4-1.9-0.6-3.4-0.6c-1.3,0-2.5,0.2-3.5,0.6
				c-1,0.4-1.8,1-2.6,1.6s-1.4,1.3-1.9,2.1s-1,1.4-1.2,2.1v21.9h-6.2V452l-0.5-9.1h5.2l0.9,5.6c0.3-0.5,0.9-1.2,1.5-1.9
				c0.6-0.8,1.4-1.4,2.3-2.1c0.9-0.6,1.9-1.2,3.1-1.6s2.6-0.6,4.1-0.6c2.1,0,3.8,0.2,5.3,0.8c1.5,0.4,2.7,1.3,3.6,2.4
				c1,1.1,1.6,2.6,2.1,4.3c0.4,1.8,0.6,4,0.6,6.7c0,0.2,0,0.6,0,1.3c0,0.6,0,1.5,0,2.4c0,1,0,1.9,0,3.1c0,1.2,0,2.4,0,3.6v9.2H435
				L435,476z"/>
			<path fill="#FFFFFF" d="M450.3,476v-33h6.2v33H450.3z M450.4,438v-8.2h6.2v8.2H450.4z"/>
			<path fill="#FFFFFF" d="M488.1,476v-9.1c0-1.2,0-2.3,0-3.5c0-1.2,0-2.2,0-3.1c0-0.9,0-1.7,0-2.4c0-0.6,0-1.1,0-1.2
				c0-1.4-0.1-2.7-0.3-3.8c-0.2-1.1-0.5-2.2-1.1-2.9c-0.5-0.9-1.2-1.4-2.1-1.8c-0.9-0.4-1.9-0.6-3.4-0.6c-1.3,0-2.5,0.2-3.5,0.6
				c-1,0.4-1.8,1-2.6,1.6c-0.8,0.6-1.4,1.3-1.9,2.1s-1,1.4-1.2,2.1v21.9h-6.2V452l-0.5-9.1h5.2l0.9,5.6c0.3-0.5,0.9-1.2,1.5-1.9
				s1.4-1.4,2.3-2.1c0.9-0.6,1.9-1.2,3.1-1.6c1.2-0.4,2.6-0.6,4.1-0.6c2.1,0,3.8,0.2,5.3,0.8c1.5,0.4,2.7,1.3,3.6,2.4
				c1,1.1,1.6,2.6,2.1,4.3c0.4,1.8,0.6,4,0.6,6.7c0,0.2,0,0.6,0,1.3c0,0.6,0,1.5,0,2.4c0,1,0,1.9,0,3.1c0,1.2,0,2.4,0,3.6v9.2H488.1
				L488.1,476z"/>
			<path fill="#FFFFFF" d="M526.2,472.3c-1,1.2-2.3,2.3-4,3s-3.9,1.2-6.6,1.2c-2.4,0-4.4-0.4-6.2-1.2c-1.7-0.8-3-1.9-4.1-3.4
				c-1.1-1.5-1.8-3.2-2.3-5.4c-0.5-2.1-0.8-4.4-0.8-7.1c0-2.7,0.2-5.1,0.8-7.2s1.3-3.9,2.3-5.4c1.1-1.5,2.4-2.6,4.1-3.4
				c1.7-0.8,3.7-1.2,6.2-1.2c1.5,0,2.9,0.2,4.2,0.6c1.2,0.4,2.3,1,3.2,1.6s1.7,1.3,2.4,1.9c0.6,0.6,1.1,1.3,1.4,1.7l0.9-5.3h5.2
				l-0.4,9.2V476c0,1.6-0.1,3.4-0.2,5.1c-0.2,1.7-0.8,3.2-1.7,4.8c-1,1.4-2.5,2.6-4.5,3.5c-2.1,0.9-5,1.3-8.6,1.3
				c-3.1,0-5.6-0.4-7.3-1.4s-3.1-2.1-4-3.4c-0.9-1.3-1.3-2.5-1.5-3.8c-0.2-1.2-0.3-2.2-0.3-2.8h5.7c0,0.1,0,0.5,0.1,1.3
				c0,0.8,0.3,1.5,0.8,2.3c0.4,0.8,1.2,1.5,2.3,2.2c1.1,0.6,2.6,1,4.8,1c1.6,0,2.9-0.2,4-0.5s1.8-0.8,2.5-1.3c1-0.9,1.6-2.1,1.8-3.5
				s0.3-2.9,0.3-4.5v-3.8H526.2z M526.2,453.7c-0.3-0.5-0.6-1.2-1.2-1.9s-1.1-1.4-1.8-2.1c-0.8-0.6-1.6-1.2-2.7-1.6
				s-2.3-0.6-3.7-0.6c-2.8,0-4.9,1.1-6.2,3.1c-1.3,2.1-1.9,5.1-1.9,9.1s0.6,6.9,1.9,9c1.3,2.1,3.4,3,6.2,3c1.5,0,2.9-0.2,4-0.6
				c1.1-0.4,2.1-1,2.8-1.7c0.8-0.6,1.3-1.4,1.7-2.3s0.8-1.6,0.9-2.4V453.7z"/>
			<path fill="#FFFFFF" d="M582.4,464.9c-0.2,3.7-1.4,6.5-3.6,8.6c-2.3,2.2-5.7,3.2-10.5,3.2c-2.8,0-5.3-0.4-7.1-1.2
				c-1.8-0.8-3.5-1.9-4.5-3.5c-1.2-1.5-1.9-3.4-2.5-5.4c-0.5-2.2-0.8-4.5-0.8-7.1c0-2.6,0.2-5,0.8-7.1s1.3-3.9,2.5-5.4
				c1.2-1.5,2.7-2.7,4.5-3.5c1.9-0.9,4.3-1.2,7.1-1.2c2.5,0,4.5,0.3,6.3,0.9c1.7,0.5,3.1,1.4,4.3,2.5c1.2,1.1,1.9,2.5,2.5,4
				s0.9,3.4,1,5.4h-5.9c-0.1-2.6-0.9-4.5-2.2-5.8c-1.4-1.3-3.4-2.1-5.8-2.1c-1.6,0-3,0.2-4.1,0.8s-1.9,1.3-2.7,2.4
				c-0.8,1.1-1.2,2.3-1.5,3.9c-0.3,1.5-0.4,3.4-0.4,5.3c0,2.1,0.1,3.8,0.4,5.4c0.3,1.5,0.8,2.8,1.5,3.8c0.8,1,1.5,1.8,2.7,2.3
				c1.1,0.5,2.5,0.8,4.1,0.8c2.5,0,4.4-0.6,5.8-1.8c1.4-1.2,2.2-2.9,2.2-5.1H582.4z"/>
			<path fill="#FFFFFF" d="M603.7,476.8c-2.9,0-5.3-0.4-7.2-1.2c-1.9-0.8-3.5-1.9-4.6-3.5c-1.2-1.5-1.9-3.4-2.5-5.4
				c-0.5-2.2-0.8-4.4-0.8-7s0.2-5,0.8-7c0.5-2.2,1.3-4,2.5-5.5c1.2-1.5,2.7-2.7,4.6-3.6s4.3-1.3,7.2-1.3c2.9,0,5.3,0.4,7.2,1.3
				s3.5,2.1,4.6,3.6c1.2,1.5,2.1,3.4,2.5,5.5c0.4,2.2,0.8,4.5,0.8,7s-0.2,4.9-0.8,7s-1.3,3.9-2.5,5.4c-1.2,1.5-2.7,2.7-4.6,3.5
				S606.7,476.8,603.7,476.8z M603.7,471.8c3.4,0,5.7-1,7-3c1.3-2.1,1.9-5.1,1.9-9.2c0-4.1-0.6-7.1-1.9-9.3c-1.3-2.1-3.6-3.1-7-3.1
				c-1.6,0-3.1,0.2-4.2,0.8s-2.1,1.3-2.7,2.4c-0.6,1.1-1.2,2.4-1.5,3.9c-0.3,1.5-0.4,3.4-0.4,5.4s0.1,3.8,0.4,5.4
				c0.3,1.5,0.8,2.8,1.5,3.8c0.6,1,1.6,1.8,2.7,2.3C600.6,471.5,602,471.8,603.7,471.8z"/>
			<path fill="#FFFFFF" d="M669.5,476v-9.1c0-1.2,0-2.3,0-3.5c0-1.2,0-2.2,0-3.1c0-0.9,0-1.7,0-2.4c0-0.6,0-1.1,0-1.2
				c0-1.4-0.1-2.7-0.2-3.8c-0.2-1.2-0.4-2.2-0.9-2.9c-0.4-0.9-1.1-1.4-1.8-1.8s-1.8-0.6-3.1-0.6c-1.2,0-2.3,0.2-3.2,0.8
				c-1,0.4-1.8,1.1-2.5,1.7c-0.8,0.6-1.3,1.4-1.8,2.2s-0.9,1.4-1.2,2.1c0,0.3,0,0.6,0,1c0,0.3,0,0.8,0,1.1V476h-5.8v-9.1
				c0-1.2,0-2.3,0-3.5c0-1.2,0-2.2,0-3.1c0-0.9,0-1.7,0-2.4c0-0.6,0-1.1,0-1.2c0-1.4-0.1-2.7-0.2-3.8c-0.2-1.2-0.4-2.2-0.9-2.9
				c-0.4-0.9-1.1-1.4-1.8-1.8c-0.9-0.4-1.8-0.6-3.1-0.6s-2.5,0.3-3.6,0.9s-1.9,1.3-2.7,2.1c-0.8,0.8-1.3,1.6-1.8,2.5
				c-0.4,0.9-0.9,1.5-1.1,2.1v21h-6.2v-23.9l-0.5-9.1h5.2l0.9,6.2c0.3-0.5,0.8-1.2,1.3-1.9c0.6-0.8,1.4-1.5,2.3-2.3s1.9-1.4,3.1-1.8
				c1.2-0.5,2.6-0.8,4.1-0.8c2.6,0,4.6,0.5,6.4,1.5c1.6,1,2.8,2.7,3.6,5.2c0.3-0.5,0.8-1.2,1.3-1.9c0.6-0.8,1.4-1.5,2.3-2.2
				c0.9-0.6,1.9-1.3,3.1-1.8c1.2-0.5,2.5-0.8,4-0.8c1.8,0,3.4,0.2,4.8,0.8c1.4,0.4,2.5,1.3,3.5,2.4c0.9,1.1,1.6,2.6,2.1,4.3
				c0.4,1.8,0.6,4,0.6,6.7v19.7h-5.8V476z"/>
			<path fill="#FFFFFF" d="M707.3,460.4l-17.4-0.1c0,1.8,0.1,3.6,0.4,5c0.3,1.5,0.8,2.7,1.4,3.7s1.5,1.7,2.6,2.3s2.5,0.8,4.1,0.8
				c1.6,0,3-0.2,4.1-0.6c1.1-0.4,1.9-1,2.6-1.6c0.6-0.6,1.1-1.3,1.4-2.1c0.2-0.8,0.4-1.4,0.4-1.9h6.2c0,1-0.2,2.2-0.6,3.5
				c-0.4,1.3-1.2,2.5-2.3,3.6c-1.1,1.1-2.6,2.1-4.4,2.8c-1.8,0.8-4.2,1.2-7.1,1.2c-2.8,0-5.1-0.3-7-1.1s-3.5-1.8-4.5-3.4
				c-1.2-1.5-2.1-3.2-2.5-5.4c-0.5-2.2-0.8-4.5-0.8-7.2c0-2.7,0.2-5.2,0.8-7.3c0.5-2.2,1.3-4,2.5-5.5c1.2-1.5,2.7-2.7,4.5-3.5
				c1.9-0.8,4.2-1.2,7-1.2c5.2,0,9,1.5,11.2,4.4c2.3,2.9,3.5,7.5,3.5,13.7h-6.1V460.4z M707.1,455.8c-0.3-3-1.2-5.3-2.5-6.8
				s-3.4-2.3-6.1-2.3c-2.8,0-4.9,0.8-6.1,2.4c-1.3,1.6-2.1,3.8-2.3,6.6h16.9V455.8z"/>
			<path fill="#FFFFFF" d="M740.9,452.6c0-0.9-0.1-1.6-0.3-2.3c-0.2-0.6-0.6-1.3-1.2-1.7c-0.5-0.5-1.3-0.9-2.3-1.2
				c-1-0.3-2.2-0.4-3.6-0.4s-2.6,0.1-3.6,0.4c-0.9,0.2-1.6,0.6-2.2,1.1s-1,1-1.1,1.5c-0.2,0.5-0.3,1.1-0.3,1.6
				c0,1.4,0.5,2.4,1.5,3.1c1.1,0.6,2.4,1.3,3.9,1.6c1.5,0.4,3.2,0.8,5.1,1.1s3.6,0.9,5.1,1.5c1.5,0.6,2.8,1.6,3.9,2.9s1.5,3,1.5,5.3
				c0,3.1-1.2,5.6-3.5,7.2c-2.3,1.6-5.8,2.5-10.7,2.5c-4.4,0-7.8-1-10.2-2.7c-2.4-1.8-3.6-4.6-3.6-8.5h5.5c0,2.4,0.8,4,2.2,5.1
				c1.4,1.1,3.5,1.5,6.1,1.5c2.8,0,4.9-0.4,6.1-1.3c1.2-0.9,1.8-2.1,1.8-3.4c0-1.5-0.5-2.6-1.5-3.2c-1-0.8-2.3-1.3-3.9-1.6
				s-3.2-0.8-5-1.1c-1.8-0.3-3.5-0.9-5-1.5c-1.5-0.6-2.8-1.6-3.9-2.9s-1.5-3.1-1.5-5.4c0-2.8,1.1-5.1,3.2-6.8
				c2.2-1.6,5.4-2.5,9.8-2.5c4.5,0,7.9,1,9.9,2.7c2.1,1.7,3.1,4.3,3.1,7.7h-5.6V452.6z"/>
			<path fill="#FFFFFF" d="M789.3,475.9l-0.8-4.2c-1.1,1.5-2.5,2.7-4.3,3.6c-1.8,0.9-4.2,1.3-7,1.3c-4.1,0-7-0.9-8.8-2.5
				c-1.7-1.6-2.6-4.1-2.6-7.5c0-1.6,0.2-2.9,0.6-4.1c0.4-1.1,1-2.1,1.8-2.8c0.9-0.9,2.1-1.5,3.4-1.9c1.3-0.4,2.8-0.8,4.5-1
				c1.6-0.2,3.5-0.3,5.5-0.3c2.1,0,4,0,6.2,0c0-2.1-0.1-3.8-0.3-5.1s-0.6-2.4-1.4-3.1c-1-1-2.8-1.5-5.4-1.5c-1.6,0-2.9,0.2-4,0.6
				c-1,0.4-1.8,0.9-2.4,1.5c-0.5,0.6-1,1.3-1.2,1.9c-0.2,0.8-0.3,1.4-0.3,1.9h-5.5c0-1,0.1-2.1,0.4-3.2c0.2-1.2,0.9-2.4,1.7-3.5
				c0.9-1.1,2.2-2.1,4-2.8c1.7-0.8,4.1-1.1,7-1.1c2.6,0,4.6,0.2,6.3,0.8c1.6,0.4,2.9,1.1,4,1.9c1.5,1.3,2.5,3,2.8,5.1
				s0.5,4.5,0.5,7.2v2.3v7.8l0.5,8.5h-5.4V475.9z M787.7,460.7c-2.5,0-4.8,0-6.7,0.1c-2.1,0.1-3.7,0.3-5.1,0.6s-2.5,1-3.2,1.8
				c-0.8,0.9-1.1,2.1-1.1,3.7s0.5,2.9,1.5,4c1,1.1,2.8,1.5,5.3,1.5c2.2,0,4.1-0.5,5.8-1.5c1.7-1,2.9-2.5,3.6-4.4v-5.8H787.7z"/>
			<path fill="#FFFFFF" d="M804.3,476v-23.5l-0.5-9.5h5.2l1,6.5c0.2-0.6,0.5-1.3,1.1-2.2s1.2-1.6,2.2-2.4c1-0.8,2.1-1.4,3.5-1.9
				s3.1-0.8,5.2-0.8v5.7c-2.2,0-4,0.3-5.4,1.1s-2.5,1.6-3.4,2.6c-0.9,1-1.4,2.1-1.8,3c-0.4,1-0.6,1.8-0.8,2.4v19h-6.2V476z"/>
			<path fill="#FFFFFF" d="M840.3,476.8c-2.9,0-5.3-0.4-7.2-1.2c-1.9-0.8-3.5-1.9-4.6-3.5s-1.9-3.4-2.5-5.4c-0.5-2.2-0.8-4.4-0.8-7
				s0.2-5,0.8-7c0.5-2.2,1.3-4,2.5-5.5c1.2-1.5,2.7-2.7,4.6-3.6s4.3-1.3,7.2-1.3c2.9,0,5.3,0.4,7.2,1.3s3.5,2.1,4.6,3.6
				s2.1,3.4,2.5,5.5c0.4,2.2,0.8,4.5,0.8,7s-0.2,4.9-0.8,7s-1.3,3.9-2.5,5.4s-2.7,2.7-4.6,3.5S843.2,476.8,840.3,476.8z
				 M840.2,471.8c3.4,0,5.7-1,7-3c1.3-2.1,1.9-5.1,1.9-9.2c0-4.1-0.6-7.1-1.9-9.3c-1.3-2.1-3.6-3.1-7-3.1c-1.6,0-3.1,0.2-4.2,0.8
				s-2.1,1.3-2.7,2.4s-1.2,2.4-1.5,3.9c-0.3,1.5-0.4,3.4-0.4,5.4s0.1,3.8,0.4,5.4c0.3,1.5,0.8,2.8,1.5,3.8c0.6,1,1.6,1.8,2.7,2.3
				C837.1,471.5,838.6,471.8,840.2,471.8z"/>
			<path fill="#FFFFFF" d="M886.5,476l-1-6.1c-0.3,0.5-0.8,1.2-1.3,1.9s-1.4,1.5-2.3,2.3c-1,0.8-2.1,1.4-3.4,1.8
				c-1.3,0.4-2.7,0.8-4.3,0.8c-1.9,0-3.7-0.2-5.1-0.8s-2.7-1.3-3.6-2.4c-1-1.1-1.6-2.5-2.2-4.2c-0.4-1.7-0.8-3.9-0.8-6.4v-10.7
				c0-2.8,0-5.9,0.1-9.4h6.2c0,3.4-0.1,6.4-0.1,9.1v9.9c0,1.4,0.1,2.7,0.3,3.8s0.5,2.1,1,2.9c0.4,0.9,1.1,1.4,1.9,1.8
				c0.9,0.4,1.9,0.6,3.4,0.6c1.5,0,2.7-0.3,3.8-0.9c1.1-0.5,2.1-1.3,2.8-2.1c0.8-0.8,1.4-1.6,1.9-2.4c0.4-0.9,0.9-1.5,1.1-2.1v-21
				h6.2v23.9l0.5,9.1h-5.3V476z"/>
			<path fill="#FFFFFF" d="M923.5,476v-9.1c0-1.2,0-2.3,0-3.5c0-1.2,0-2.2,0-3.1c0-0.9,0-1.7,0-2.4c0-0.6,0-1.1,0-1.2
				c0-1.4-0.1-2.7-0.3-3.8s-0.5-2.2-1.1-2.9c-0.5-0.9-1.2-1.4-2.1-1.8s-1.9-0.6-3.4-0.6c-1.3,0-2.5,0.2-3.5,0.6
				c-1,0.4-1.8,1-2.6,1.6c-0.8,0.6-1.4,1.3-1.9,2.1s-1,1.4-1.2,2.1v21.9h-6.2V452l-0.5-9.1h5.2l0.9,5.6c0.3-0.5,0.9-1.2,1.5-1.9
				s1.4-1.4,2.3-2.1c0.9-0.6,1.9-1.2,3.1-1.6c1.2-0.4,2.6-0.6,4.1-0.6c2.1,0,3.8,0.2,5.3,0.8c1.5,0.4,2.7,1.3,3.6,2.4
				c1,1.1,1.6,2.6,2.1,4.3c0.4,1.8,0.6,4,0.6,6.7c0,0.2,0,0.6,0,1.3c0,0.6,0,1.5,0,2.4c0,1,0,1.9,0,3.1c0,1.2,0,2.4,0,3.6v9.2H923.5
				L923.5,476z"/>
			<path fill="#FFFFFF" d="M963.1,476l-0.8-4.5c-1,1.4-2.3,2.6-4.1,3.7c-1.7,1-4.1,1.5-7.1,1.5c-2.4,0-4.4-0.4-6.2-1.2
				c-1.7-0.8-3-1.9-4.1-3.4c-1.1-1.5-1.8-3.2-2.3-5.4c-0.5-2.1-0.8-4.4-0.8-7.1c0-2.7,0.2-5.1,0.8-7.2s1.3-3.9,2.3-5.4
				c1.1-1.5,2.4-2.6,4.1-3.4c1.7-0.8,3.7-1.2,6.2-1.2c1.3,0,2.6,0.1,3.7,0.4c1.1,0.3,2.1,0.6,2.9,1.1c0.9,0.4,1.6,1,2.3,1.5
				c0.6,0.5,1.2,1.1,1.6,1.5v-17.5h6.2v37.6l0.5,9H963.1z M961.6,453.7c-0.3-0.5-0.6-1.2-1.2-1.9s-1.1-1.4-1.8-2.1
				c-0.8-0.6-1.6-1.2-2.7-1.6s-2.3-0.6-3.7-0.6c-2.8,0-4.9,1.1-6.2,3.1c-1.3,2.1-1.9,5.1-1.9,9.1s0.6,6.9,1.9,9c1.3,2.1,3.4,3,6.2,3
				c1.5,0,2.8-0.2,3.9-0.6c1.1-0.4,1.9-1,2.7-1.6s1.3-1.4,1.7-2.2c0.4-0.8,0.8-1.5,1-2.3v-11.2H961.6z"/>
		</g>
	</g>
</g>
</svg>
