<?xml version="1.0" encoding="utf-8"?>
<!-- Generator: Adobe Illustrator 18.0.0, SVG Export Plug-In . SVG Version: 6.00 Build 0)  -->
<!DOCTYPE svg PUBLIC "-//W3C//DTD SVG 1.1//EN" "http://www.w3.org/Graphics/SVG/1.1/DTD/svg11.dtd">
<svg version="1.1" id="Layer_1" xmlns="http://www.w3.org/2000/svg" xmlns:xlink="http://www.w3.org/1999/xlink" x="0px" y="0px"
	 viewBox="0 0 1080.1 153.3" enable-background="new 0 0 1080.1 153.3" xml:space="preserve">
<g>
	<g>
		<path fill="#FFFFFF" d="M116,95.2c-0.1,10.5-1.4,19.4-3.9,26.8c-2.5,7.4-6.1,13.4-10.8,18.1c-4.7,4.7-10.6,8-17.5,10.1
			c-6.9,2.1-14.9,3.1-24,3.1c-10.4,0-19.3-1.4-26.7-4.2c-7.5-2.8-13.7-7.2-18.6-13.2c-4.9-6-8.6-13.7-10.9-23.1
			C1.2,103.4,0,92.1,0,78.8c0-13.2,1.2-24.6,3.5-34.1c2.4-9.5,6-17.3,10.9-23.3C19.4,15.4,25.6,11,33,8.2c7.5-2.8,16.4-4.2,26.7-4.2
			c9,0,17,1.1,24,3.2c6.9,2.2,12.8,5.5,17.6,10.1c4.8,4.6,8.4,10.5,10.9,17.8c2.5,7.3,3.8,16.1,3.9,26.4H83.4
			c-0.3-5.5-0.9-10.1-2-13.8c-1.1-3.7-2.6-6.6-4.5-8.7c-2-2.2-4.4-3.7-7.3-4.6c-2.9-0.9-6.2-1.4-9.8-1.4c-4.7,0-8.7,0.7-12,2.2
			c-3.3,1.4-5.9,3.9-8,7.5c-2,3.5-3.5,8.3-4.5,14.2s-1.5,13.2-1.5,22c0,8.7,0.5,15.9,1.5,21.7c1,5.8,2.5,10.5,4.5,14
			c2,3.5,4.7,5.9,8,7.4c3.3,1.4,7.3,2.2,12,2.2c3.7,0,6.9-0.4,9.7-1.3c2.8-0.9,5.2-2.4,7.2-4.6c2-2.2,3.5-5.2,4.6-8.8
			c1.1-3.7,1.8-8.4,2.1-14.2H116z"/>
		<path fill="#FFFFFF" d="M129.4,149.4V0h32.2v149.4H129.4z"/>
		<path fill="#FFFFFF" d="M249.1,149.2l-2.9-10.8c-3.1,4.2-7.3,7.5-12.6,9.9c-5.2,2.4-12,3.6-20.2,3.6c-12.7,0-22.2-2.2-28.3-6.7
			c-3.8-2.8-6.5-6.4-8.2-10.8c-1.6-4.5-2.5-9.9-2.5-16.3c0-10.5,2.8-18.2,8.5-23.2c2.8-2.5,6.1-4.4,10.1-5.8c4-1.4,8.5-2.4,13.5-3.1
			c5-0.7,10.5-1.1,16.5-1.3c6-0.1,12.4-0.2,19.1-0.2c0-3.7-0.1-6.8-0.4-9.5c-0.3-2.7-0.9-4.9-2-6.8c-1.1-2.1-2.7-3.6-4.8-4.6
			s-5.1-1.5-8.9-1.5c-3.4,0-6.3,0.5-8.6,1.4c-2.3,0.9-4.1,2.1-5.5,3.4s-2.4,2.9-2.9,4.5c-0.6,1.6-0.9,3.2-0.9,4.8h-28.7
			c0-3.1,0.4-6.8,1.3-11c0.9-4.2,2.8-8.2,5.8-12c3-3.8,7.5-7,13.6-9.6c6-2.6,14.2-3.9,24.6-3.9c10.9,0,19.5,1.1,26,3.1
			c6.4,2.1,11.3,5,14.7,8.8c2.2,2.5,3.9,5.3,5.1,8.5s2.1,6.6,2.7,10.3c0.6,3.7,0.9,7.8,1.1,12.1c0.1,4.3,0.2,8.9,0.2,13.8v23.8
			l1.6,29.1H249.1z M242,103c-5.9,0-11.1,0.2-15.6,0.5c-4.5,0.3-8.3,1-11.4,2.1c-3.1,1.1-5.4,2.6-7.1,4.7c-1.6,2.1-2.5,4.9-2.5,8.5
			c0,3.7,1.2,6.7,3.6,9c2.4,2.4,6.4,3.5,11.9,3.5c4.1,0,8.1-0.9,12-2.8c3.9-1.8,6.9-5.2,9-10.2V103z"/>
		<path fill="#FFFFFF" d="M353.1,74.5c0-4.1-1.3-7.2-3.9-9.5c-2.6-2.3-7.1-3.4-13.4-3.4c-2.9,0-5.3,0.3-7.3,0.9
			c-2,0.6-3.5,1.3-4.7,2.2c-1.2,0.9-2,1.8-2.5,2.9c-0.5,1.1-0.7,2.2-0.7,3.2c0,3.5,1.6,6.2,4.7,7.9c3.1,1.7,7.1,3.1,11.9,4.1
			c4.8,1.1,9.9,2.1,15.4,3.1c5.5,1.1,10.6,2.8,15.4,5.1c4.8,2.4,8.7,5.7,11.9,9.9c3.1,4.3,4.7,10.1,4.7,17.6
			c0,11.1-4,19.6-11.9,25.4c-7.9,5.8-20.5,8.7-37.6,8.7c-16.3,0-28.3-3.1-36.1-9.3c-7.8-6.2-11.7-16.2-11.7-29.8h28.7
			c0,6.4,1.8,10.8,5.3,13.2c3.5,2.4,8,3.5,13.4,3.5c5.8,0,10.2-0.8,13.2-2.5c3-1.6,4.5-4,4.5-7c0-3.7-1.6-6.4-4.7-8.2
			c-3.1-1.8-7.1-3.2-11.8-4.2c-4.7-1-9.8-2.1-15.2-3.2c-5.4-1.1-10.5-2.9-15.2-5.3c-4.7-2.4-8.7-5.9-11.8-10.3
			C290.6,85,289,78.8,289,71c0-9.8,3.8-17.6,11.4-23.3c7.6-5.7,19.1-8.6,34.6-8.6c16.4,0,28.3,3,35.7,8.9c7.4,6,11.1,14.8,11.1,26.4
			H353.1z"/>
		<path fill="#FFFFFF" d="M455.5,74.5c0-4.1-1.3-7.2-3.9-9.5c-2.6-2.3-7.1-3.4-13.4-3.4c-2.9,0-5.3,0.3-7.3,0.9
			c-2,0.6-3.5,1.3-4.7,2.2c-1.2,0.9-2,1.8-2.5,2.9c-0.5,1.1-0.7,2.2-0.7,3.2c0,3.5,1.6,6.2,4.7,7.9c3.1,1.7,7.1,3.1,11.9,4.1
			c4.8,1.1,9.9,2.1,15.4,3.1c5.5,1.1,10.6,2.8,15.4,5.1c4.8,2.4,8.7,5.7,11.9,9.9c3.1,4.3,4.7,10.1,4.7,17.6
			c0,11.1-4,19.6-11.9,25.4s-20.5,8.7-37.6,8.7c-16.3,0-28.3-3.1-36.1-9.3c-7.8-6.2-11.7-16.2-11.7-29.8h28.7
			c0,6.4,1.8,10.8,5.3,13.2c3.5,2.4,8,3.5,13.4,3.5c5.8,0,10.2-0.8,13.2-2.5c3-1.6,4.5-4,4.5-7c0-3.7-1.6-6.4-4.7-8.2
			c-3.1-1.8-7.1-3.2-11.8-4.2c-4.7-1-9.8-2.1-15.2-3.2c-5.4-1.1-10.5-2.9-15.2-5.3c-4.7-2.4-8.7-5.9-11.8-10.3
			c-3.1-4.5-4.7-10.6-4.7-18.5c0-9.8,3.8-17.6,11.4-23.3c7.6-5.7,19.1-8.6,34.6-8.6c16.4,0,28.3,3,35.7,8.9
			c7.4,6,11.1,14.8,11.1,26.4H455.5z"/>
		<path fill="#FFFFFF" d="M616.5,149.4l1.2-71.8l-24.2,72.2h-41.1l-21.2-68.2l1,67.8h-38.5V5.9h56.4l26,86.5L603,5.9h55l-0.4,143.5
			H616.5z"/>
		<path fill="#FFFFFF" d="M741.2,149.4l-3.5-9.8c-2.1,3.9-5.3,7-9.6,9.3c-4.3,2.3-10.4,3.4-18.3,3.4c-8.4,0-15.4-0.7-20.9-2.1
			c-5.6-1.4-10.1-3.5-13.5-6.4c-3.4-2.9-5.8-6.6-7.3-11.2c-1.4-4.6-2.2-10.1-2.2-16.5c0-10.1,2.6-17.4,7.7-22
			c4.8-4.3,12.1-6.9,21.6-7.9c9.6-0.9,21.8-1.4,36.8-1.4c0.3-6.3,0-10.8-0.7-13.7c-0.7-2.8-3.4-4.2-8-4.2c-2.6,0-4.9,0.8-6.8,2.3
			c-1.9,1.5-2.9,4-2.9,7.4h-41.9c0-2.1,0.1-4.5,0.3-7.3c0.2-2.8,0.8-5.5,1.7-8.4c0.9-2.8,2.4-5.6,4.3-8.5c2-2.8,4.8-5.3,8.5-7.5
			c3.7-2.2,8.3-3.9,13.9-5.2c5.6-1.3,12.4-2,20.5-2c12.5,0,22.4,1,29.8,2.9c7.4,2,13.2,4.9,17.4,8.7c2.8,2.5,4.8,5.3,6.3,8.6
			c1.4,3.2,2.5,6.8,3.2,10.6c0.7,3.9,1.1,8,1.3,12.5c0.1,4.5,0.2,9.2,0.2,14.4V118l1,31.5H741.2z M731.9,105
			c-6.2,0.1-10.6,0.9-13.4,2.3c-2.8,1.4-4.1,4.4-4.1,8.9c0,3.5,0.8,6.2,2.5,7.9c1.6,1.7,3.5,2.6,5.6,2.6c1.4,0,3-0.1,4.8-0.3
			c1.8-0.2,3.3-1.2,4.6-3V105z"/>
		<path fill="#FFFFFF" d="M852.4,152.6c-12.8,0-23-1.2-30.4-3.7c-7.4-2.5-13-6.1-16.7-10.9c-3.7-4.8-6.1-10.6-7.2-17.6
			c-1.1-6.9-1.6-14.9-1.6-23.8V71.4h-14.5V40.5h14.5V12.8l47-6.9v34.6h19.5v30.9h-19.5v23.2c0,4.1,0.3,7.4,0.8,9.9
			c0.5,2.6,1.3,4.6,2.5,6c1.1,1.4,2.5,2.4,4,2.9c1.6,0.5,3.4,0.8,5.5,0.8h7.3v38.3H852.4z"/>
		<path fill="#FFFFFF" d="M916.1,102.4c0.1,4.5,0.5,8,1.1,10.7c0.6,2.7,1.3,4.8,2.2,6.3c0.9,1.5,1.9,2.5,3.2,2.9
			c1.3,0.5,2.9,0.7,4.7,0.7c3.4,0,6-0.8,7.9-2.5c1.8-1.6,2.9-4.6,3.1-8.9h48.2c0,6.4-1,12.2-3,17.4c-2,5.2-5.4,9.6-10,13.2
			c-4.7,3.6-10.7,6.4-18.3,8.3c-7.5,1.9-16.8,2.9-27.8,2.9c-11.7,0-21.3-1.1-29-3.4c-7.7-2.3-13.8-5.8-18.3-10.6
			c-4.5-4.8-7.7-10.8-9.4-18.2c-1.8-7.3-2.7-16.1-2.7-26.1c0-10.1,0.9-18.8,2.7-26.1c1.8-7.3,4.9-13.4,9.4-18.2
			c4.5-4.8,10.6-8.3,18.3-10.6c7.7-2.3,17.3-3.4,29-3.4c11,0,20.3,1.1,27.8,3.2c7.5,2.2,13.6,5.8,18.3,10.9c4.7,5.1,8,11.9,10,20.2
			c2,8.4,3,18.9,3,31.5H916.1z M937.6,83.4c-0.4-4.2-0.9-7.5-1.5-10c-0.6-2.5-1.3-4.4-2.2-5.6c-0.9-1.2-1.8-2-2.9-2.4
			c-1.1-0.3-2.3-0.5-3.6-0.5c-1.7,0-3.2,0.2-4.5,0.7c-1.3,0.5-2.4,1.3-3.2,2.7c-0.9,1.3-1.5,3.2-2.1,5.6c-0.5,2.4-0.9,5.6-1.2,9.5
			H937.6z"/>
	</g>
	<path fill="#FFFFFF" d="M1009.5,128.1c-6.6,9.1-10.5,16-8.6,17.6c1.8,1.6,8.3-2.5,16.8-9.2C1013.9,135.3,1010.8,132.1,1009.5,128.1
		z M1074.9,61.3c-0.1-0.1-0.3-0.3-0.4-0.4c0,0,0,0,0,0c-0.1-0.1-0.2-0.2-0.3-0.3c-4.2-3.6-37.4-28.8-60.6-43.2
		c-0.2-0.1-0.4-0.3-0.6-0.4c-4.7,0.4-8.5,4.4-8.8,9.3c0.2,0.2,0.4,0.4,0.6,0.6c15.5,16,39.9,37.2,50.4,46.3
		c-9.3,10.6-29.4,33.4-42.4,50.7c-0.2,0.3-0.5,0.6-0.7,0.9c0.3,4.9,4.1,8.9,8.8,9.3c0.3-0.3,0.7-0.5,1-0.8
		c21.2-17.4,50.9-46.7,54.5-50.9C1081.8,76.2,1081.2,66.7,1074.9,61.3z M1069.6,63.4c-1,1.2-2.7,1.4-4,0.4
		c-1.2-1-28.2-24.1-27.2-25.3c1-1.2,29.5,20,30.8,20.9C1070.4,60.4,1070.6,62.2,1069.6,63.4z M991.1,7.7c-1.6,1.8,3,7.9,10.4,15.9
		c1.1-4.1,4-7.3,7.8-8.8C999.8,9.2,992.6,5.9,991.1,7.7z"/>
	<rect x="1064.3" y="90.9" fill="none" stroke="#12B24B" stroke-width="0.3" stroke-miterlimit="10" width="0" height="0"/>
	<path fill="none" d="M1069.6,94.8c-1,1.2-2.7,1.4-4,0.4c-1.2-1-28.2-24.1-27.2-25.3c1-1.2,29.5,20,30.8,20.9
		C1070.4,91.8,1070.6,93.6,1069.6,94.8z"/>
</g>
</svg>
